# xmcd
#
# Track frame offsets:
#	150
#	20250
#	38746
#	56620
#	75772
#	95478
#	114163
#
# Disc length: 1762 seconds
#
# Revision: 1
# Processed by: cddbd v1.5.2PL0 Copyright (c) Steve Scherf et al.
# Submitted via: audiograbber 1.83.01
#
DISCID=4006e007
DTITLE=Black Betty and The Bad Habits - Voodoo Man
DYEAR=2007
DGENRE=Modern Blues
TTITLE0=Voodoo Man
TTITLE1=Vigilante
TTITLE2=Can't See The Sunshine
TTITLE3=Big Slim
TTITLE4=Possession
TTITLE5=All Right Now
TTITLE6=Fricasee
EXTD=
EXTT0=
EXTT1=
EXTT2=
EXTT3=
EXTT4=
EXTT5=
EXTT6=
PLAYORDER=
